<svg xmlns="http://www.w3.org/2000/svg" width="1240" height="480" viewBox="0 0 155 30" fill="none">
  <path fill-rule="evenodd" clip-rule="evenodd" d="M0 29.9997C8.21695 29.2937 14.6715 22.8366 14.6715 15.0061C14.6715 7.17567 8.21695 0.718577 0 0.0125732V5.91311C4.97294 6.56501 8.80443 10.3939 8.80443 15.0061C8.80443 18.5027 6.60139 21.5508 3.36769 23.1046H1.49961C0.870907 23.1046 0.334963 23.5091 0.110794 24.0863C0.0747211 24.0914 0.0360732 24.0966 0 24.1017V24.6815V25.2406V29.9997Z" fill="#0A3690"></path>
  <path opacity="0.9" d="M24.6199 11.6594C24.6199 18.0855 19.3919 23.3136 12.9632 23.3136H1.28833C0.577171 23.3136 0 23.8908 0 24.6019V17.444H12.9632C16.1556 17.444 18.7529 14.8467 18.7529 11.6568C18.7529 8.46689 16.1556 5.86704 12.9632 5.86704H0V0H12.9632C19.3919 0.00257666 24.6199 5.23319 24.6199 11.6594Z" fill="url(#paint0_linear_518_2522)"></path>
  <path d="M39.7555 23.7776H34.5068V6.3208H43.757C47.8101 6.3208 49.9925 9.04175 49.9925 12.3141C49.9925 15.5581 47.8101 18.2816 43.757 18.2816H39.7555V23.7776ZM43.0819 13.6746C43.9657 13.6746 44.6666 13.2288 44.6666 12.3141C44.6666 11.371 43.9657 10.9279 43.0819 10.9279H39.7555V13.6746H43.0819Z" fill="#0A3690"></path>
  <path d="M61.1157 24.0582C55.7924 24.0582 51.6826 20.402 51.6826 15.0477C51.6826 9.69338 55.7924 6.03711 61.1157 6.03711C66.4391 6.03711 70.5489 9.69338 70.5489 15.0477C70.5489 20.402 66.4391 24.0582 61.1157 24.0582ZM61.1157 19.4099C63.6228 19.4099 65.2513 17.4775 65.2513 15.0477C65.2513 12.6179 63.6228 10.6854 61.1157 10.6854C58.6087 10.6854 56.9802 12.6179 56.9802 15.0477C56.9802 17.4775 58.6087 19.4099 61.1157 19.4099Z" fill="#0A3690"></path>
  <path d="M85.1892 23.777H73.3623V6.03931H78.6135V19.0978H85.1892V23.777Z" fill="#0A3690"></path>
  <path d="M107.15 23.777H101.1L100.466 21.7028H94.1253L93.4914 23.777H87.4414L93.9397 6.03931H100.649L107.15 23.777ZM99.0389 17.021L97.2945 11.3034L95.5501 17.021H99.0389Z" fill="#0A3690"></path>
  <path d="M124.891 23.7776H118.923L116.537 18.2816H114.643V23.7776H109.402V6.3208H118.637C122.685 6.3208 124.862 9.04175 124.862 12.3141C124.862 15.3236 123.123 16.9212 121.75 17.6014L124.891 23.7776ZM117.833 13.6746C118.714 13.6746 119.544 13.2546 119.544 12.2883C119.544 11.3453 118.714 10.9279 117.833 10.9279H114.643V13.6746H117.833Z" fill="#0A3690"></path>
  <path d="M134.744 24.0583H129.395V6.60144H134.744V24.0583Z" fill="#0A3690"></path>
  <path d="M146.442 24.6202C142.631 24.6202 140.029 23.5045 138.122 21.8039L140.941 17.8204C142.283 19.0959 144.296 20.1059 146.71 20.1059C147.73 20.1059 148.697 19.8405 148.697 19.15C148.697 17.4494 138.712 19.1757 138.712 12.1904C138.712 9.18862 141.235 6.3208 146.146 6.3208C149.07 6.3208 151.701 7.14533 153.742 8.79181L150.843 12.5898C149.287 11.42 147.274 10.8377 145.581 10.8377C144.507 10.8377 144.213 11.1829 144.213 11.6339C144.213 13.3087 154.169 11.8735 154.169 18.462C154.172 22.3631 151.248 24.6202 146.442 24.6202Z" fill="#0A3690"></path>
  <defs>
    <linearGradient id="paint0_linear_518_2522" x1="22.2895" y1="2.03466" x2="-2.77421" y2="19.2644" gradientUnits="userSpaceOnUse">
      <stop offset="0.2265" stop-color="#02C9A8"></stop>
      <stop offset="1" stop-color="#ABC7FF"></stop>
    </linearGradient>
  </defs>
</svg>
